<?xml version="1.0" encoding="UTF-8"?>
<svg id="Capa_1" data-name="Capa 1" xmlns="http://www.w3.org/2000/svg" viewBox="0 0 800 498.67">
  <defs>
    <style>
      .cls-1 {
        fill: #fff;
      }
    </style>
  </defs>
  <path class="cls-1" d="M287.05,277.52c3.71,3.51,7.51,6.94,11.13,10.55,33.18,33.13,66.26,66.37,99.54,99.41,7.65,7.6,11.57,16.25,9.27,26.89-3.92,18.16-25.5,26.51-40.78,15.93-2.71-1.87-5.14-4.2-7.48-6.53-44.77-44.72-89.53-89.47-134.26-134.23-24.18-24.2-24.32-55.79-.28-79.88,45.59-45.66,91.22-91.3,136.9-136.88,15.68-15.65,39.81-10.22,45.49,10.26,3,10.82-.6,19.81-8.43,27.62-35.57,35.44-71.04,70.98-106.54,106.49-1.55,1.55-3.04,3.18-5.39,5.65,3.27,0,5.45,0,7.64,0,90.47,0,180.93-.01,271.4,.02,15.01,0,25.42,8.28,28.04,22.07,2.63,13.84-7.09,28-21.02,30.36-3.25,.55-6.61,.63-9.91,.63-89.22,.03-178.45,.03-267.67,.03h-6.75c-.3,.55-.6,1.09-.9,1.64Z"/>
</svg>