<?xml version="1.0" encoding="UTF-8"?>
<svg id="Capa_1" data-name="Capa 1" xmlns="http://www.w3.org/2000/svg" viewBox="0 0 800 498.67">
  <defs>
    <style>
      .cls-1 {
        fill: #fff;
      }
    </style>
  </defs>
  <path class="cls-1" d="M349.37,266c-32.38-19.03-52.17-46.4-56.52-83.69-3.78-32.38,5.64-61.08,27.61-85.09,43.32-47.33,116.72-46.79,160.12,.65,45.19,49.4,35.12,133.48-29.25,167.94,12.15,3.56,23.69,7.54,34.82,12.65,13.76,6.32,26.54,14.22,38.55,23.39,6.11,4.67,7.42,11.18,3.5,16.61-4.21,5.85-11.41,7.05-17.59,2.46-22.21-16.49-46.46-28.69-73.77-33.65-72.35-13.17-132.05,9.3-179,65.47-17.66,21.13-28.71,45.82-34.74,72.71-2.13,9.5-9.86,13.71-17.59,9.71-5.23-2.71-7.36-7.97-5.84-14.64,11.14-48.8,36.77-88.33,76.4-118.74,21.11-16.2,44.58-27.79,70.33-34.68,.88-.24,1.72-.63,2.96-1.1Zm-33.15-96.12c-.27,46.1,37.25,84.03,83.47,84.39,46.21,.36,84.28-37.06,84.67-83.21,.39-46.39-37.27-84.67-83.53-84.92-46.5-.24-84.34,37.2-84.62,83.73Z"/>
  <path class="cls-1" d="M549.95,356.99c-7.05-.1-12.96-6.09-12.92-13.1,.04-7.26,6.17-13.09,13.55-12.89,7.14,.19,12.89,6.23,12.66,13.29-.23,7.15-6.15,12.8-13.3,12.7Z"/>
  <path class="cls-1" d="M574.84,368.44c7.15,.12,12.8,5.95,12.76,13.16-.05,7.43-6,13.14-13.44,12.9-7.21-.24-12.68-6.05-12.53-13.34,.14-7.1,6.1-12.85,13.21-12.73Z"/>
  <path class="cls-1" d="M587.94,410.24c7.17,.09,12.92,5.93,12.87,13.07-.05,7.12-5.9,12.91-13.04,12.92-7.43,0-13.19-5.88-13.03-13.32,.16-7.23,5.92-12.75,13.21-12.66Z"/>
</svg>