<svg id="Capa_1" data-name="Capa 1" xmlns="http://www.w3.org/2000/svg" viewBox="0 0 800 498.67"><defs><style>.cls-1{fill:#075c62;}</style></defs><path class="cls-1" d="M218.87,292.6v-145H258.8v145Zm33,0V263.27h26.68q7.74,0,12.43-4.17t4.68-11.51a16.12,16.12,0,0,0-2.14-8.46,13.73,13.73,0,0,0-5.9-5.39,20.63,20.63,0,0,0-9.07-1.84H251.87V203.8h24.85a17.31,17.31,0,0,0,10.79-3.26q4.29-3.25,4.28-10.19t-4.28-10.18a17.31,17.31,0,0,0-10.79-3.26H251.87V147.58h36.25q13.25,0,23.12,5a38.15,38.15,0,0,1,15.38,13.65,36.29,36.29,0,0,1,5.5,19.86q0,15.48-11,25.25t-32.18,11.21l-.41-14.06q23,1.43,35.24,12.63T336,249.83a39.87,39.87,0,0,1-6.32,22.3,42.14,42.14,0,0,1-17.61,15.07q-11.31,5.4-26.38,5.4Z"/><path class="cls-1" d="M397.09,295q-18.54,0-32.28-5.39a73,73,0,0,1-25.36-17.21L364.91,247a60.83,60.83,0,0,0,16.7,11.5,44.83,44.83,0,0,0,18.74,4q8.36,0,12.63-2.55a7.85,7.85,0,0,0,4.28-7,9.18,9.18,0,0,0-3.67-7.43,36.88,36.88,0,0,0-9.68-5.3c-4-1.56-8.42-3.15-13.23-4.78a122,122,0,0,1-14.36-5.91A64.35,64.35,0,0,1,363.18,221a37.47,37.47,0,0,1-9.68-12.43q-3.66-7.43-3.66-18.23,0-14,6.72-24.23a42.74,42.74,0,0,1,18.94-15.58q12.22-5.4,28.72-5.4a86.15,86.15,0,0,1,30.25,5.19,60.74,60.74,0,0,1,23.11,14.77l-25.66,25.46a50.48,50.48,0,0,0-13.44-9.68,34.13,34.13,0,0,0-14.67-3.15q-6.31,0-10.08,2a6.57,6.57,0,0,0-3.77,6.11,8.45,8.45,0,0,0,3.67,7,38.7,38.7,0,0,0,9.67,5q6,2.25,13.24,4.69a133.11,133.11,0,0,1,14.36,5.8A57.71,57.71,0,0,1,444,216.93a38.88,38.88,0,0,1,9.67,12.94q3.68,7.74,3.67,18.74,0,22.2-15.78,34.32T397.09,295Z"/><path class="cls-1" d="M517.47,295q-18.54,0-32.29-5.39a73,73,0,0,1-25.35-17.21L485.29,247a60.68,60.68,0,0,0,16.7,11.5,44.75,44.75,0,0,0,18.73,4q8.35,0,12.63-2.55a7.85,7.85,0,0,0,4.28-7,9.15,9.15,0,0,0-3.67-7.43,36.8,36.8,0,0,0-9.67-5.3q-6-2.34-13.24-4.78a122.74,122.74,0,0,1-14.36-5.91A64.9,64.9,0,0,1,483.55,221a37.45,37.45,0,0,1-9.67-12.43q-3.67-7.43-3.67-18.23,0-14,6.73-24.23a42.69,42.69,0,0,1,18.94-15.58q12.21-5.4,28.71-5.4a86.07,86.07,0,0,1,30.25,5.19A60.78,60.78,0,0,1,578,165.1L552.3,190.56a50.67,50.67,0,0,0-13.45-9.68,34.12,34.12,0,0,0-14.66-3.15q-6.32,0-10.08,2a6.55,6.55,0,0,0-3.77,6.11,8.44,8.44,0,0,0,3.66,7,38.79,38.79,0,0,0,9.68,5q6,2.25,13.24,4.69a133.94,133.94,0,0,1,14.36,5.8,57.43,57.43,0,0,1,13.13,8.55,38.9,38.9,0,0,1,9.68,12.94q3.66,7.74,3.66,18.74,0,22.2-15.78,34.32T517.47,295Z"/><path class="cls-1" d="M404.75,339.87l16.05-40.6H429L445,339.87h-9.61l-12.13-33.64h3.34l-12.42,33.64Zm9.2-7.31V325.2H436v7.36Z"/><path class="cls-1" d="M459.38,340.44a13,13,0,0,1-11.9-7.07,17,17,0,0,1,0-14.95,13.1,13.1,0,0,1,4.83-5.18,13.33,13.33,0,0,1,7.07-1.89,12.47,12.47,0,0,1,5.18,1.06,10.05,10.05,0,0,1,3.85,3,8.39,8.39,0,0,1,1.73,4.46v11.78a8.62,8.62,0,0,1-1.73,4.46,10.76,10.76,0,0,1-3.85,3.16A11.4,11.4,0,0,1,459.38,340.44Zm1.56-8a6.26,6.26,0,0,0,3.27-.83,5.85,5.85,0,0,0,2.16-2.33,7.37,7.37,0,0,0,.77-3.45,7.07,7.07,0,0,0-.77-3.37,5.84,5.84,0,0,0-2.16-2.3,6.15,6.15,0,0,0-3.22-.83,6,6,0,0,0-3.22.86,6.42,6.42,0,0,0-2.21,2.33,6.65,6.65,0,0,0-.84,3.36,7.25,7.25,0,0,0,.78,3.4,5.73,5.73,0,0,0,2.22,2.33A6.33,6.33,0,0,0,460.94,332.45Zm14.54,7.42H466.8v-7.53l1.32-6.85-1.49-6.73V298.12h8.85Z"/><path class="cls-1" d="M481.64,339.87V311.92h8.85v27.95Zm17.94,0V323.54a4.15,4.15,0,0,0-1.3-3.25,4.53,4.53,0,0,0-3.19-1.18,5,5,0,0,0-2.36.54,4.31,4.31,0,0,0-1.64,1.53,4.43,4.43,0,0,0-.6,2.36L487.1,322a10.67,10.67,0,0,1,1.46-5.66,10,10,0,0,1,3.91-3.68,11.84,11.84,0,0,1,5.61-1.29,10.4,10.4,0,0,1,5.21,1.32,10.12,10.12,0,0,1,3.73,3.68,10.77,10.77,0,0,1,1.41,5.63v17.89Zm17.82,0V323.54a4.17,4.17,0,0,0-1.29-3.25,4.48,4.48,0,0,0-3.13-1.18,5,5,0,0,0-2.33.54,4,4,0,0,0-1.64,1.53,4.51,4.51,0,0,0-.58,2.36l-5.12-.69a13,13,0,0,1,1.73-6.16,10.4,10.4,0,0,1,4.2-4,12.6,12.6,0,0,1,5.92-1.38,11.89,11.89,0,0,1,5.69,1.35,9.86,9.86,0,0,1,4,3.82,11.69,11.69,0,0,1,1.44,6v17.37Z"/><path class="cls-1" d="M536.32,308.13a4.51,4.51,0,0,1-3.39-1.44,4.81,4.81,0,0,1-1.38-3.45,4.68,4.68,0,0,1,1.38-3.45,4.61,4.61,0,0,1,3.39-1.38,4.46,4.46,0,0,1,3.42,1.38,4.82,4.82,0,0,1,1.3,3.45,5,5,0,0,1-1.3,3.45A4.37,4.37,0,0,1,536.32,308.13Zm-4.43,31.74V311.92h8.86v27.95Z"/><path class="cls-1" d="M546.84,339.87V311.92h8.86v27.95Zm18.52,0V323.94a4.66,4.66,0,0,0-1.38-3.48,4.74,4.74,0,0,0-3.45-1.35,5,5,0,0,0-2.47.6,4.42,4.42,0,0,0-1.73,1.7,5,5,0,0,0-.63,2.53l-3.39-1.67a11.15,11.15,0,0,1,1.46-5.75,10,10,0,0,1,4-3.82,12.17,12.17,0,0,1,5.78-1.35,10.54,10.54,0,0,1,5.46,1.43,10.43,10.43,0,0,1,3.8,3.89,10.6,10.6,0,0,1,1.38,5.31v17.89Z"/></svg>