<?xml version="1.0" encoding="UTF-8"?>
<svg id="Capa_1" data-name="Capa 1" xmlns="http://www.w3.org/2000/svg" viewBox="0 0 800 498.67">
  <defs>
    <style>
      .cls-1 {
        fill: #fff;
      }
    </style>
  </defs>
  <g>
    <path class="cls-1" d="M221.99,290.79V147.84h39.35v142.95h-39.35Zm32.53,0v-28.91h26.3c5.09,0,9.17-1.37,12.25-4.12,3.08-2.74,4.62-6.53,4.62-11.34,0-3.21-.7-5.99-2.11-8.33-1.41-2.34-3.35-4.12-5.82-5.32-2.48-1.2-5.46-1.81-8.94-1.81h-26.3v-27.71h24.49c4.28,0,7.83-1.07,10.64-3.21,2.81-2.14,4.22-5.49,4.22-10.04s-1.4-7.9-4.22-10.04c-2.81-2.14-6.36-3.21-10.64-3.21h-24.49v-28.91h35.74c8.7,0,16.29,1.64,22.79,4.92,6.49,3.28,11.54,7.77,15.16,13.45,3.61,5.69,5.42,12.22,5.42,19.58,0,10.17-3.61,18.47-10.84,24.9-7.23,6.42-17.8,10.11-31.72,11.04l-.4-13.85c15.12,.94,26.7,5.09,34.73,12.45,8.03,7.36,12.05,16.8,12.05,28.31,0,8.3-2.08,15.63-6.22,21.98-4.15,6.36-9.94,11.31-17.37,14.86-7.43,3.55-16.1,5.32-26,5.32h-33.33Z"/>
    <path class="cls-1" d="M397.67,293.2c-12.18,0-22.79-1.78-31.82-5.32-9.03-3.54-17.37-9.2-25-16.96l25.1-25.1c5.22,4.95,10.71,8.73,16.46,11.34,5.75,2.61,11.91,3.92,18.47,3.92,5.49,0,9.64-.83,12.45-2.51,2.81-1.67,4.22-3.98,4.22-6.93s-1.2-5.39-3.61-7.33c-2.41-1.94-5.59-3.68-9.54-5.22-3.95-1.54-8.3-3.11-13.05-4.72-4.75-1.61-9.47-3.55-14.15-5.82-4.69-2.27-9-5.05-12.95-8.33-3.95-3.28-7.13-7.36-9.54-12.25-2.41-4.88-3.61-10.87-3.61-17.97,0-9.24,2.21-17.2,6.63-23.89,4.42-6.69,10.64-11.81,18.67-15.36,8.03-3.54,17.47-5.32,28.31-5.32s20.65,1.71,29.82,5.12c9.17,3.41,16.76,8.27,22.79,14.56l-25.3,25.1c-4.42-4.28-8.83-7.46-13.25-9.54-4.42-2.07-9.24-3.11-14.46-3.11-4.15,0-7.46,.67-9.94,2.01-2.48,1.34-3.71,3.35-3.71,6.02,0,2.81,1.2,5.12,3.61,6.93,2.41,1.81,5.59,3.45,9.54,4.92,3.95,1.47,8.3,3.01,13.05,4.62,4.75,1.61,9.47,3.51,14.15,5.72,4.68,2.21,9,5.02,12.95,8.43,3.95,3.41,7.13,7.66,9.54,12.75,2.41,5.09,3.61,11.24,3.61,18.47,0,14.59-5.19,25.87-15.56,33.83-10.37,7.97-25,11.95-43.87,11.95Z"/>
    <path class="cls-1" d="M516.33,293.2c-12.18,0-22.79-1.78-31.82-5.32-9.03-3.54-17.37-9.2-25-16.96l25.1-25.1c5.22,4.95,10.71,8.73,16.46,11.34,5.75,2.61,11.91,3.92,18.47,3.92,5.49,0,9.64-.83,12.45-2.51,2.81-1.67,4.22-3.98,4.22-6.93s-1.2-5.39-3.61-7.33c-2.41-1.94-5.59-3.68-9.54-5.22-3.95-1.54-8.3-3.11-13.05-4.72-4.75-1.61-9.47-3.55-14.15-5.82-4.69-2.27-9-5.05-12.95-8.33-3.95-3.28-7.13-7.36-9.54-12.25-2.41-4.88-3.61-10.87-3.61-17.97,0-9.24,2.21-17.2,6.63-23.89,4.42-6.69,10.64-11.81,18.67-15.36,8.03-3.54,17.47-5.32,28.31-5.32s20.65,1.71,29.82,5.12c9.17,3.41,16.76,8.27,22.79,14.56l-25.3,25.1c-4.42-4.28-8.83-7.46-13.25-9.54-4.42-2.07-9.24-3.11-14.46-3.11-4.15,0-7.46,.67-9.94,2.01-2.48,1.34-3.71,3.35-3.71,6.02,0,2.81,1.2,5.12,3.61,6.93,2.41,1.81,5.59,3.45,9.54,4.92,3.95,1.47,8.3,3.01,13.05,4.62,4.75,1.61,9.47,3.51,14.15,5.72,4.68,2.21,9,5.02,12.95,8.43,3.95,3.41,7.13,7.66,9.54,12.75,2.41,5.09,3.61,11.24,3.61,18.47,0,14.59-5.19,25.87-15.56,33.83-10.37,7.97-25,11.95-43.87,11.95Z"/>
  </g>
  <g>
    <path class="cls-1" d="M416.82,352.48v-53.98h6.8v26.84l-1.28,8.69,1.28,8.77v9.68h-6.8Zm18.9,.76c-2.72,0-5.18-.57-7.37-1.7-2.19-1.13-3.94-2.71-5.25-4.73-1.31-2.01-2.04-4.31-2.19-6.88v-10.81c.15-2.62,.89-4.93,2.23-6.92,1.33-1.99,3.1-3.55,5.29-4.69,2.19-1.13,4.62-1.7,7.3-1.7,3.28,0,6.24,.83,8.88,2.5,2.65,1.66,4.73,3.91,6.24,6.73,1.51,2.82,2.27,6,2.27,9.53s-.76,6.7-2.27,9.53c-1.51,2.82-3.59,5.05-6.24,6.69-2.65,1.64-5.61,2.46-8.88,2.46Zm-1.13-6.43c2.27,0,4.26-.53,5.97-1.59,1.71-1.06,3.06-2.51,4.05-4.35,.98-1.84,1.47-3.97,1.47-6.39s-.49-4.47-1.47-6.31c-.98-1.84-2.33-3.29-4.05-4.35-1.71-1.06-3.7-1.59-5.97-1.59s-4.19,.53-5.9,1.59c-1.71,1.06-3.05,2.51-4.01,4.35-.96,1.84-1.44,3.97-1.44,6.39s.47,4.47,1.4,6.31c.93,1.84,2.27,3.29,4.01,4.35,1.74,1.06,3.72,1.59,5.93,1.59Z"/>
    <path class="cls-1" d="M476.09,353.23c-3.33,0-6.31-.82-8.96-2.46-2.65-1.64-4.74-3.87-6.28-6.69-1.54-2.82-2.31-6-2.31-9.53s.77-6.7,2.31-9.53c1.54-2.82,3.63-5.06,6.28-6.73,2.65-1.66,5.63-2.5,8.96-2.5,2.72,0,5.15,.57,7.3,1.7,2.14,1.13,3.87,2.7,5.18,4.69,1.31,1.99,2.04,4.3,2.19,6.92v10.81c-.15,2.57-.87,4.87-2.15,6.88-1.28,2.02-3.01,3.59-5.18,4.73-2.17,1.13-4.61,1.7-7.33,1.7Zm1.13-6.43c3.38,0,6.1-1.14,8.16-3.44,2.07-2.29,3.1-5.23,3.1-8.81,0-2.42-.48-4.56-1.44-6.43-.96-1.86-2.28-3.31-3.97-4.35-1.69-1.03-3.67-1.55-5.93-1.55s-4.27,.53-6.01,1.59c-1.74,1.06-3.1,2.51-4.08,4.35-.98,1.84-1.47,3.94-1.47,6.31s.49,4.55,1.47,6.39c.98,1.84,2.36,3.29,4.12,4.35,1.76,1.06,3.78,1.59,6.05,1.59Zm10.81,5.67v-9.68l1.28-8.77-1.28-8.69v-8.77h6.88v35.91h-6.88Z"/>
    <path class="cls-1" d="M504.82,352.48v-35.91h6.8v35.91h-6.8Zm25.33,0v-20.94c0-2.72-.84-4.96-2.53-6.73-1.69-1.76-3.89-2.65-6.61-2.65-1.82,0-3.43,.4-4.84,1.21-1.41,.81-2.52,1.92-3.33,3.33-.81,1.41-1.21,3.02-1.21,4.84l-2.8-1.59c0-2.72,.6-5.14,1.81-7.26,1.21-2.12,2.9-3.79,5.07-5.03,2.17-1.23,4.61-1.85,7.33-1.85s5.13,.68,7.22,2.04c2.09,1.36,3.74,3.14,4.95,5.33,1.21,2.19,1.81,4.53,1.81,6.99v22.3h-6.88Z"/>
    <path class="cls-1" d="M546.25,352.48v-53.98h6.8v53.98h-6.8Zm22.98,0l-16.78-18.37,16.56-17.54h8.32l-18.52,19.35,.3-3.93,18.9,20.49h-8.77Z"/>
  </g>
</svg>