<?xml version="1.0" encoding="UTF-8"?>
<svg id="Capa_1" data-name="Capa 1" xmlns="http://www.w3.org/2000/svg" xmlns:xlink="http://www.w3.org/1999/xlink" viewBox="0 0 800 498.67">
  <defs>
    <style>
      .cls-1 {
        fill: #fff;
      }

      .cls-2 {
        fill: #060708;
      }

      .cls-3 {
        fill: url(#Degradado_sin_nombre_4);
      }
    </style>
    <linearGradient id="Degradado_sin_nombre_4" data-name="Degradado sin nombre 4" x1="431.7" y1="239.67" x2="359.09" y2="131.99" gradientUnits="userSpaceOnUse">
      <stop offset="0" stop-color="#5b00d5"/>
      <stop offset="1" stop-color="#5b00d5"/>
    </linearGradient>
  </defs>
  <rect class="cls-1" x="377.28" y="137.25" width="75.8" height="83.91"/>
  <path class="cls-2" d="M263.39,313.22c0-9.62,.04-19.23-.03-28.85-.01-1.61,.33-2.17,2.07-2.14,7.33,.11,14.66,.05,21.99,.05,2.23,0,4.42,.28,6.58,.81,10.65,2.63,16.48,10.68,16.01,22.08-.42,10.29-7.39,17.88-17.86,19.55-3.99,.64-7.99,.38-11.99,.43-3.43,.04-3.43,0-3.43,3.56,0,4.42-.06,8.85,.03,13.27,.04,1.6-.31,2.26-2.07,2.17-3.06-.15-6.14-.13-9.2,0-1.65,.07-2.15-.38-2.13-2.08,.08-9.61,.04-19.23,.04-28.85Zm13.33-9.53c0,2.89,.04,5.78-.02,8.67-.02,1.11,.16,1.73,1.5,1.69,3.06-.1,6.14,.1,9.19-.13,5.68-.43,9.26-4.49,9.26-10.2,0-5.75-3.54-9.76-9.23-10.21-2.96-.23-5.96-.03-8.93-.17-1.55-.07-1.83,.57-1.79,1.93,.09,2.8,.03,5.61,.03,8.41Z"/>
  <path class="cls-2" d="M491.71,321.68c-.01,14.18-9.4,23.29-24.02,23.32-14.63,.02-24.21-9.31-24.15-23.53,.06-14.01,9.7-23.24,24.23-23.2,14.57,.05,23.96,9.23,23.95,23.41Zm-12.7,.01c.01-6.51-3.11-11.41-8.12-12.74-6.4-1.7-12.07,1.52-13.88,7.88-2.22,7.77,1.06,15.69,7.24,17.47,.16,.05,.33,.07,.5,.11,8.09,1.89,14.25-3.59,14.27-12.72Z"/>
  <path class="cls-2" d="M376.66,303.93c4.74-5.17,10.76-6.5,17.42-5.47,7.92,1.22,12.7,6.18,14.12,14.34,.72,4.15,.46,8.32,.49,12.48,.04,5.62-.04,11.24,.04,16.85,.02,1.53-.33,2.1-1.96,2.03-2.89-.14-5.8-.15-8.69,0-1.7,.09-1.94-.62-1.93-2.07,.06-7.06,.05-14.13,0-21.19,0-1.7-.08-3.42-.39-5.08-.81-4.39-3.31-6.78-7.39-7.31-4.47-.58-8.31,1.41-10.14,5.27-1.08,2.28-1.37,4.71-1.36,7.21,.02,6.98-.06,13.96,.05,20.94,.03,1.84-.56,2.31-2.31,2.22-2.81-.14-5.63-.1-8.44,0-1.4,.05-1.92-.32-1.92-1.82,.05-13.96,.06-27.92,0-41.88,0-1.57,.62-1.84,1.97-1.78,2.13,.09,4.28,.22,6.39-.03,2.25-.26,3.06,.65,3.22,2.71,.06,.81,.05,1.72,.81,2.59Z"/>
  <path class="cls-2" d="M529.94,312.81c-.6,0-1.2-.05-1.79,0-2.34,.21-4,0-5.38-2.64-2.07-3.97-11.34-4.43-14.56-1.18-2.1,2.12-1.32,4.94,1.74,5.9,3.27,1.04,6.72,1.12,10.09,1.57,2.79,.38,5.55,.89,8.21,1.85,4.41,1.59,7.5,4.43,8.22,9.22,.76,5.01-.81,9.26-4.81,12.47-3.14,2.53-6.84,3.73-10.79,4.27-5.67,.78-11.25,.46-16.59-1.73-5.21-2.13-8.73-5.78-9.96-11.44-.37-1.7,.07-2.31,1.85-2.18,1.78,.14,3.58,.1,5.37,.01,2.5-.12,4.74-.26,5.63,3,.44,1.62,2.29,2.45,3.95,2.98,3.09,1,6.21,1.02,9.32,.17,2.21-.6,3.9-1.8,3.89-4.39,0-2.67-1.98-3.42-4.06-3.8-3.69-.66-7.42-1.07-11.12-1.71-1.92-.33-3.85-.8-5.68-1.45-9.16-3.23-11.38-13.65-4.41-20.47,1.8-1.75,3.91-3.02,6.3-3.78,7.27-2.29,14.48-2.03,21.5,.91,4.39,1.83,7.41,5.06,8.66,9.77,.47,1.77,.4,2.99-2.01,2.64-1.17-.17-2.38-.03-3.58-.03Z"/>
  <path class="cls-2" d="M315.75,313.85c0-4.84,.06-8.92-.03-13-.03-1.56,.25-2.31,2.07-2.21,2.8,.16,5.63,.15,8.43,0,1.72-.09,2.13,.51,2.11,2.16-.08,7.14-.04,14.29-.03,21.43,0,1.78,0,3.56,.42,5.33,1.09,4.64,3.78,6.8,8.53,6.74,4.59-.05,7.26-2.23,8.27-6.77,.5-2.26,.38-4.57,.38-6.86,0-6.63,.06-13.27-.03-19.9-.02-1.68,.47-2.2,2.16-2.12,2.98,.14,5.96,.07,8.94,.02,1.03-.01,1.56,.24,1.54,1.41-.22,9.26,.55,18.55-.41,27.79-1.01,9.69-6.53,15.06-16.26,16.39-4.53,.62-9.03,.47-13.42-.81-7.74-2.27-11.34-7.93-12.32-15.57-.63-4.91-.22-9.86-.33-14.03Z"/>
  <path class="cls-2" d="M418.45,321.83c0-3.66-.04-7.32,.02-10.97,.02-1.19-.3-1.77-1.56-1.6-.25,.03-.51,0-.77,0q-5.22-.04-5.22-5.38c0-5.16,0-5.25,5.14-5.15,1.84,.04,2.57-.33,2.43-2.33-.2-2.79,.02-5.61-.08-8.42-.05-1.48,.26-2.15,1.94-2.07,2.98,.14,5.96,.1,8.94,.01,1.37-.04,1.76,.46,1.73,1.76-.07,3.15,.02,6.3-.05,9.44-.03,1.23,.37,1.63,1.6,1.58,2.38-.08,4.77,.05,7.16-.05,1.39-.06,1.76,.46,1.71,1.76-.09,2.38-.09,4.77,0,7.14,.05,1.36-.44,1.77-1.76,1.72-2.3-.09-4.6,.03-6.9-.05-1.22-.04-1.83,.15-1.81,1.62,.08,6.21-.01,12.42,.07,18.63,.04,2.89,1.17,3.88,4.12,4.05,.68,.04,1.36,.02,2.04,.02q4.46,0,4.46,4.59,0,5.96-5.87,5.96c-1.7,0-3.41,.03-5.11,0-7.75-.17-11.96-4.29-12.2-12.07-.11-3.4-.02-6.8-.02-10.21h-.02Z"/>
  <path class="cls-2" d="M402.59,367.2c5.74-3.99,9.53-3.68,13.52,.89,1.8-2.34,4.14-3.62,7.15-3.64,4.67-.04,7.89,2.29,8.3,6.88,.43,4.73,.28,9.52,.22,14.29-.02,2.07-1.79,.87-2.74,1.07-1.03,.22-1.97,.15-1.93-1.47,.1-3.91,.11-7.83-.02-11.75-.12-3.69-2.32-5.49-5.61-4.87-2.42,.46-3.98,2.56-4.06,5.75-.08,3.49-.18,6.99,.02,10.47,.13,2.32-1.27,1.83-2.58,1.92-1.49,.11-2.32-.1-2.22-1.99,.17-3.48,.1-6.98,.03-10.47-.08-3.89-1.64-5.77-4.64-5.77-3.02,0-4.95,2.12-5.07,5.83-.11,3.49-.19,6.99,.01,10.47,.13,2.31-1.27,1.83-2.59,1.93-1.54,.12-2.28-.18-2.24-2.02,.13-5.79,0-11.58,.09-17.36,.01-.95-.89-2.6,1.19-2.7,1.59-.07,3.47-.48,3.16,2.54Z"/>
  <path class="cls-2" d="M323.28,387c-7.48,0-12.75-4.52-13.97-11.9-.42-2.56-.37-5.09,.14-7.61,1.9-9.47,12.92-14.31,21.26-9.35,2.11,1.26,3.75,2.97,4.7,5.23,.45,1.07,1.51,2.37,.4,3.41-1.07,.99-4.41-.2-5.11-1.56-2.83-5.51-10.48-6.12-14.28-1.15-3.04,3.98-3.07,11.09-.05,15.13,3.8,5.09,11.55,4.4,14.4-1.28,.61-1.22,4.35-2.18,5.22-1.31,.61,.61,.11,1.31-.06,1.91-1.47,5.11-6.52,8.48-12.64,8.48Z"/>
  <path class="cls-2" d="M440.14,383.88c-.16,1.8-.36,3.05-2.46,2.92-1.68-.1-2.12-.52-2.1-2.17,.08-8.67,.09-17.35,0-26.02-.02-1.77,.6-2.18,2.2-2.07,1.37,.1,2.72-.27,2.57,1.98-.19,2.84-.05,5.69-.05,8.73,5.94-3.9,11.57-3.56,15.09,.71,3.53,4.28,3.23,12.08-.61,16.02-3.85,3.95-9.49,4.03-14.63-.1Zm.13-8.28c-.03,4.45,2.47,7.37,6.32,7.39,3.85,.02,6.48-2.94,6.48-7.28,0-4.3-2.67-7.28-6.52-7.25-3.79,.03-6.26,2.83-6.28,7.14Z"/>
  <path class="cls-2" d="M484.18,383.78c-3.18,3.41-6.87,3.95-10.91,2.56-2.8-.96-4.2-2.98-4.25-5.74-.05-3.05,1.38-5.22,4.23-6.32,2.7-1.04,5.53-.81,8.34-.89,.77-.02,1.88,.53,2.25-.52,.37-1.07,.04-2.2-.7-3.12-1.75-2.18-6.61-2.22-8.18,.27-1.27,2.02-2.91,1.2-4.46,1.36-.61,.06-.95-.3-.72-.97,.06-.16,.11-.32,.16-.49,1.05-3.81,5.54-5.96,11.25-5.39,4.41,.44,7.14,2.98,7.33,7.07,.14,2.89,.03,5.79,.06,8.68,0,.74-.25,1.89,.6,2.04,2.94,.52,1.83,2.6,1.57,4.1-.14,.81-4.59,.22-5.45-.76-.44-.5-.7-1.15-1.13-1.88Zm-4.16-6.89c-1.27,.04-2.54-.06-3.81,.29-1.5,.41-2.38,1.34-2.43,2.88-.05,1.56,.83,2.5,2.28,2.99,2.2,.74,5.16,.04,6.57-1.65,.96-1.15,1.73-2.6,1.15-3.98-.48-1.14-1.97-.34-3-.52-.25-.04-.51,0-.77,0Z"/>
  <path class="cls-2" d="M383.73,387c-6.69,.02-11.26-4.5-11.31-11.18-.05-6.74,4.41-11.32,11.08-11.37,6.9-.05,11.41,4.41,11.41,11.27,0,6.71-4.5,11.26-11.18,11.28Zm-.17-18.54c-3.85,.06-6.37,3.04-6.28,7.44,.08,4.25,2.65,7.07,6.42,7.05,3.83-.02,6.51-3.05,6.47-7.33-.04-4.31-2.73-7.22-6.61-7.17Z"/>
  <path class="cls-2" d="M361.19,375.85c-.05,6.71-4.58,11.17-11.31,11.15-6.65-.02-11.19-4.61-11.19-11.3,0-6.81,4.6-11.32,11.47-11.25,6.7,.07,11.09,4.6,11.03,11.4Zm-17.63-.17c-.01,4.38,2.58,7.31,6.46,7.28,3.74-.03,6.36-2.92,6.42-7.11,.07-4.33-2.53-7.34-6.37-7.39-3.9-.05-6.49,2.82-6.5,7.22Z"/>
  <path class="cls-2" d="M369.19,371.69c0,4.41-.12,8.83,.05,13.24,.08,2.15-1.19,1.77-2.43,1.8-1.32,.03-2.38,.2-2.35-1.86,.13-8.82,.13-17.65,0-26.47-.03-2.13,1.14-1.8,2.41-1.83,1.35-.03,2.44-.13,2.37,1.9-.16,4.41-.05,8.82-.05,13.24Z"/>
  <path class="cls-2" d="M465.79,375.77c0,3.14-.08,6.27,.03,9.41,.07,2.08-1.35,1.51-2.41,1.52-1.08,.01-2.41,.51-2.38-1.55,.09-6.27,.1-12.54,0-18.81-.04-2.2,1.38-1.61,2.55-1.68,1.24-.07,2.34-.18,2.26,1.72-.13,3.13-.04,6.27-.04,9.41Z"/>
  <path class="cls-2" d="M463.59,361.59c-1.84-.02-2.92-.97-2.95-2.78-.02-1.69,1.02-2.73,2.7-2.78,1.8-.06,2.94,.95,2.94,2.78,0,1.67-.96,2.65-2.69,2.78Z"/>
  <path class="cls-3" d="M346.14,214.74c0-13.96-.48-27.93,.1-41.87,1.32-31.56,26.01-57.4,57.55-60.87,34.38-3.79,66.15,20.35,71.37,54.22,5.35,34.68-17.26,67.12-51.58,73.9-11.62,2.3-23.07,1.41-34.27-2.47-3.32-1.15-3.92-.73-3.93,2.79-.02,6.21,.01,12.43-.01,18.64-.02,3.51-1.26,4.75-4.79,4.75-9.8,.02-19.61,.01-29.41,0-3.98,0-5.19-1.21-5.2-5.18-.01-14.64,0-29.28,0-43.92h.18Zm88.15-47.7c1.62,0,3.25-.11,4.86,.03,2.01,.18,2.44-.43,2.03-2.44-2.49-12.08-11.08-20.15-24.04-21.6-18.02-2.02-31.13,6.85-35.27,22.16-2.13,7.88-1.97,15.84,.25,23.71,1.32,4.66,3.65,8.79,7.02,12.3,10.49,10.95,30.76,12.19,42.67,2.63,5.14-4.13,8.18-9.46,9.35-15.93,.27-1.48,0-1.98-1.56-1.95-3.49,.08-6.99,.11-10.49-.01-1.59-.06-2.16,.56-2.64,2-1.87,5.54-5.65,9.07-11.53,9.94-6.39,.95-11.83-.76-15.74-6.2-5.76-8.01-5.72-22.46,.08-30.45,6.55-9.03,21.09-8.84,25.68,.95,2.22,4.74,4.93,5.31,9.06,4.87,.08,0,.17,0,.26,0Z"/>
</svg>